<mxfile host="app.diagrams.net" modified="2024-04-23T02:05:23.946Z" agent="Mozilla/5.0 (Windows NT 10.0; Win64; x64) AppleWebKit/537.36 (KHTML, like Gecko) Chrome/124.0.0.0 Safari/537.36 Edg/124.0.0.0" etag="37ZolChM7rGZ-b6Ji9SV" version="24.2.8" type="google">
  <diagram name="PÃ¡gina-1" id="EsV_hU_n9v8IO_po1IZR">
    <mxGraphModel grid="1" page="1" gridSize="10" guides="1" tooltips="1" connect="1" arrows="1" fold="1" pageScale="1" pageWidth="827" pageHeight="1169" math="0" shadow="0">
      <root>
        <mxCell id="0" />
        <mxCell id="1" parent="0" />
        <mxCell id="PLotvf8VpJzMhTsRhS2a-24" style="edgeStyle=orthogonalEdgeStyle;rounded=0;orthogonalLoop=1;jettySize=auto;html=1;exitX=1;exitY=0.3333333333333333;exitDx=0;exitDy=0;exitPerimeter=0;entryX=0;entryY=0.5;entryDx=0;entryDy=0;" edge="1" parent="1" source="PLotvf8VpJzMhTsRhS2a-1" target="PLotvf8VpJzMhTsRhS2a-19">
          <mxGeometry relative="1" as="geometry">
            <Array as="points">
              <mxPoint x="160" y="70" />
              <mxPoint x="235" y="70" />
              <mxPoint x="235" y="50" />
            </Array>
          </mxGeometry>
        </mxCell>
        <mxCell id="PLotvf8VpJzMhTsRhS2a-25" style="edgeStyle=orthogonalEdgeStyle;rounded=0;orthogonalLoop=1;jettySize=auto;html=1;exitX=1;exitY=0.3333333333333333;exitDx=0;exitDy=0;exitPerimeter=0;entryX=0;entryY=0.5;entryDx=0;entryDy=0;" edge="1" parent="1" source="PLotvf8VpJzMhTsRhS2a-1" target="PLotvf8VpJzMhTsRhS2a-8">
          <mxGeometry relative="1" as="geometry">
            <Array as="points">
              <mxPoint x="200" y="230" />
              <mxPoint x="200" y="100" />
            </Array>
          </mxGeometry>
        </mxCell>
        <mxCell id="PLotvf8VpJzMhTsRhS2a-26" style="edgeStyle=orthogonalEdgeStyle;rounded=0;orthogonalLoop=1;jettySize=auto;html=1;exitX=0.5;exitY=0.5;exitDx=0;exitDy=0;exitPerimeter=0;entryX=0;entryY=0.5;entryDx=0;entryDy=0;" edge="1" parent="1" source="PLotvf8VpJzMhTsRhS2a-1" target="PLotvf8VpJzMhTsRhS2a-15">
          <mxGeometry relative="1" as="geometry">
            <Array as="points">
              <mxPoint x="220" y="240" />
              <mxPoint x="220" y="150" />
            </Array>
          </mxGeometry>
        </mxCell>
        <mxCell id="PLotvf8VpJzMhTsRhS2a-27" style="edgeStyle=orthogonalEdgeStyle;rounded=0;orthogonalLoop=1;jettySize=auto;html=1;exitX=1;exitY=1;exitDx=0;exitDy=0;exitPerimeter=0;entryX=0;entryY=0.5;entryDx=0;entryDy=0;" edge="1" parent="1" source="PLotvf8VpJzMhTsRhS2a-1" target="PLotvf8VpJzMhTsRhS2a-16">
          <mxGeometry relative="1" as="geometry">
            <Array as="points">
              <mxPoint x="160" y="260" />
              <mxPoint x="235" y="260" />
              <mxPoint x="235" y="200" />
            </Array>
          </mxGeometry>
        </mxCell>
        <mxCell id="PLotvf8VpJzMhTsRhS2a-1" value="Actor" style="shape=umlActor;verticalLabelPosition=bottom;verticalAlign=top;html=1;outlineConnect=0;" vertex="1" parent="1">
          <mxGeometry x="130" y="210" width="30" height="60" as="geometry" />
        </mxCell>
        <mxCell id="PLotvf8VpJzMhTsRhS2a-21" style="edgeStyle=orthogonalEdgeStyle;rounded=0;orthogonalLoop=1;jettySize=auto;html=1;exitX=0;exitY=1;exitDx=0;exitDy=0;exitPerimeter=0;entryX=1;entryY=0.5;entryDx=0;entryDy=0;" edge="1" parent="1" source="PLotvf8VpJzMhTsRhS2a-2" target="PLotvf8VpJzMhTsRhS2a-20">
          <mxGeometry relative="1" as="geometry">
            <Array as="points">
              <mxPoint x="540" y="270" />
              <mxPoint x="540" y="360" />
            </Array>
          </mxGeometry>
        </mxCell>
        <mxCell id="PLotvf8VpJzMhTsRhS2a-22" style="edgeStyle=orthogonalEdgeStyle;rounded=0;orthogonalLoop=1;jettySize=auto;html=1;exitX=0;exitY=0.3333333333333333;exitDx=0;exitDy=0;exitPerimeter=0;entryX=1;entryY=0.5;entryDx=0;entryDy=0;" edge="1" parent="1" source="PLotvf8VpJzMhTsRhS2a-2" target="PLotvf8VpJzMhTsRhS2a-18">
          <mxGeometry relative="1" as="geometry">
            <Array as="points">
              <mxPoint x="569" y="250" />
              <mxPoint x="520" y="250" />
              <mxPoint x="520" y="310" />
            </Array>
          </mxGeometry>
        </mxCell>
        <mxCell id="PLotvf8VpJzMhTsRhS2a-23" style="edgeStyle=orthogonalEdgeStyle;rounded=0;orthogonalLoop=1;jettySize=auto;html=1;exitX=0.25;exitY=0.1;exitDx=0;exitDy=0;exitPerimeter=0;entryX=1;entryY=0.5;entryDx=0;entryDy=0;" edge="1" parent="1" source="PLotvf8VpJzMhTsRhS2a-2" target="PLotvf8VpJzMhTsRhS2a-17">
          <mxGeometry relative="1" as="geometry">
            <Array as="points">
              <mxPoint x="577" y="220" />
              <mxPoint x="505" y="220" />
              <mxPoint x="505" y="250" />
            </Array>
          </mxGeometry>
        </mxCell>
        <mxCell id="PLotvf8VpJzMhTsRhS2a-2" value="Actor" style="shape=umlActor;verticalLabelPosition=bottom;verticalAlign=top;html=1;outlineConnect=0;" vertex="1" parent="1">
          <mxGeometry x="569" y="210" width="30" height="60" as="geometry" />
        </mxCell>
        <mxCell id="PLotvf8VpJzMhTsRhS2a-8" value="Pago Factura" style="ellipse;whiteSpace=wrap;html=1;" vertex="1" parent="1">
          <mxGeometry x="310" y="80" width="130" height="40" as="geometry" />
        </mxCell>
        <mxCell id="PLotvf8VpJzMhTsRhS2a-9" style="edgeStyle=orthogonalEdgeStyle;rounded=0;orthogonalLoop=1;jettySize=auto;html=1;exitX=1;exitY=0;exitDx=0;exitDy=0;entryX=0.933;entryY=0.009;entryDx=0;entryDy=0;entryPerimeter=0;" edge="1" parent="1">
          <mxGeometry relative="1" as="geometry">
            <mxPoint x="550" y="30" as="sourcePoint" />
            <mxPoint x="526.55" y="33.14999999999998" as="targetPoint" />
          </mxGeometry>
        </mxCell>
        <mxCell id="PLotvf8VpJzMhTsRhS2a-15" value="Informacion General" style="ellipse;whiteSpace=wrap;html=1;" vertex="1" parent="1">
          <mxGeometry x="310" y="130" width="130" height="40" as="geometry" />
        </mxCell>
        <mxCell id="PLotvf8VpJzMhTsRhS2a-16" value="Ingresar Documento" style="ellipse;whiteSpace=wrap;html=1;" vertex="1" parent="1">
          <mxGeometry x="310" y="180" width="130" height="40" as="geometry" />
        </mxCell>
        <mxCell id="PLotvf8VpJzMhTsRhS2a-17" value="Manipulacion de Estado" style="ellipse;whiteSpace=wrap;html=1;" vertex="1" parent="1">
          <mxGeometry x="310" y="230" width="130" height="40" as="geometry" />
        </mxCell>
        <mxCell id="PLotvf8VpJzMhTsRhS2a-18" value="Obtener Turno" style="ellipse;whiteSpace=wrap;html=1;" vertex="1" parent="1">
          <mxGeometry x="310" y="290" width="130" height="40" as="geometry" />
        </mxCell>
        <mxCell id="PLotvf8VpJzMhTsRhS2a-19" value="Solicitud de citas" style="ellipse;whiteSpace=wrap;html=1;" vertex="1" parent="1">
          <mxGeometry x="310" y="30" width="130" height="40" as="geometry" />
        </mxCell>
        <mxCell id="PLotvf8VpJzMhTsRhS2a-20" value="Detalle Usuario" style="ellipse;whiteSpace=wrap;html=1;" vertex="1" parent="1">
          <mxGeometry x="310" y="340" width="130" height="40" as="geometry" />
        </mxCell>
      </root>
    </mxGraphModel>
  </diagram>
</mxfile>
